<svg width="40" height="40" viewBox="0 0 40 40" fill="none" xmlns="http://www.w3.org/2000/svg">
<circle cx="20" cy="20" r="20" fill="#A5A5A5"/>
<mask id="mask0_627_1427" style="mask-type:alpha" maskUnits="userSpaceOnUse" x="0" y="0" width="40" height="40">
<circle cx="20" cy="20" r="20" fill="#A5A5A5"/>
</mask>
<g mask="url(#mask0_627_1427)">
<path d="M12.4198 27.8164C12.289 27.673 12.2105 27.5113 12.239 27.3672C12.2516 27.3035 12.3238 26.9718 12.3607 27.2304C12.3884 27.4241 12.4067 27.6198 12.4198 27.8164C12.4545 28.3355 12.4533 28.8613 12.4956 29.3764C12.5292 29.7874 12.5254 30.2082 12.8348 30.4714C12.906 30.5319 12.9831 30.5589 13.0633 30.5706C13.6997 30.0834 14.7801 30.2184 15.2182 29.435C15.668 28.6307 16.1916 27.9186 16.7665 27.2059C17.7122 26.0337 18.6111 24.7805 19.724 23.8036C20.7573 22.8966 21.5984 21.8166 22.4857 20.7386C22.7677 20.3961 23.0498 20.0537 23.333 19.7125C23.3564 19.4347 23.3854 19.1521 23.4556 18.8957C23.5446 18.5707 23.7014 18.7784 23.8731 18.7784C24.0066 18.7784 24.1336 18.5658 24.2776 18.5389C24.4561 18.5054 24.0497 18.8554 23.9253 19.0033C23.7271 19.2389 23.5298 19.4754 23.333 19.7125C23.3217 19.8466 23.3117 19.9796 23.299 20.108C23.1993 21.1164 23.3995 22.0939 23.7513 23.0166C24.04 23.7735 24.0917 24.535 24.2733 25.3141C24.471 26.1626 24.9648 26.9273 25.378 27.6557C25.8733 28.529 26.3261 29.422 26.761 30.3345C27.015 30.8674 27.3095 31.3799 27.3177 32.0063C27.3208 32.2412 27.2284 32.0747 27.1176 32.0747C26.7302 32.0747 26.3402 32.3857 26.0564 32.6467C25.7693 32.9107 25.4248 33.1277 25.1953 33.463C25.0116 33.7314 24.3701 33.4435 24.1689 33.3848C23.4501 33.1751 22.7432 32.6691 22.0291 32.5147C21.8052 32.4663 21.4339 32.7911 21.2418 32.8667C20.2761 33.2466 19.1425 33.0299 18.1713 32.808C17.3132 32.6119 16.4463 32.3505 15.6487 31.9379C14.9969 31.6006 14.3664 31.1949 13.7307 30.8233C13.6103 30.7529 13.5194 30.5833 13.3828 30.5789C13.275 30.5754 13.1665 30.5857 13.0633 30.5706C13.0246 30.6003 12.9874 30.6323 12.9522 30.6669C12.5589 31.0537 13.0556 31.7908 13.2219 32.2018C13.2286 32.2186 13.232 32.2343 13.2325 32.2491C13.2382 32.4386 12.7603 32.4728 12.6782 32.4267C12.2762 32.2008 11.8966 31.9366 11.5126 31.6739C11.347 31.5606 10.8239 31.3504 10.7385 31.1264C10.6857 30.9881 10.9918 31.2241 11.1169 31.2779C11.7055 31.5311 12.2893 31.7981 12.8696 32.0747C12.9907 32.1325 13.1117 32.1905 13.2325 32.2491C13.232 32.2343 13.2286 32.2186 13.2219 32.2018C13.0556 31.7908 12.5589 31.0537 12.9522 30.6669C12.9874 30.6323 13.0246 30.6003 13.0633 30.5706C12.9831 30.5589 12.906 30.5319 12.8348 30.4714C12.5254 30.2082 12.5292 29.7874 12.4956 29.3764C12.4533 28.8613 12.4545 28.3355 12.4198 27.8164Z" fill="#A5A5A5"/>
<path d="M19.9936 20.284C19.5495 20.3224 19.319 20.9461 19.2282 21.3888C19.177 21.6381 19.2013 21.9737 19.3064 22.2002C19.3453 22.284 19.5443 22.5424 19.3934 22.342C18.9979 21.8166 18.3957 21.4313 17.906 21.0319C17.1885 20.4469 16.5077 19.8032 15.7923 19.2183C15.7245 19.163 15.1476 18.5291 15.1399 18.8077C15.1112 19.8383 15.1057 20.8603 14.992 21.8874C14.8029 23.5956 14.3514 25.2229 13.9395 26.8735C13.8445 27.2542 13.7395 27.9269 13.4089 28.1592C13.0559 28.4071 12.1523 27.8054 12.239 27.3672C12.2516 27.3035 12.3238 26.9718 12.3607 27.2304C12.4616 27.9356 12.4374 28.6662 12.4956 29.3764C12.5292 29.7874 12.5254 30.2082 12.8348 30.4714C12.9976 30.6098 13.1911 30.5727 13.3828 30.5789C13.5194 30.5833 13.6103 30.7529 13.7307 30.8233C14.3664 31.1949 14.9969 31.6006 15.6487 31.9379C16.4463 32.3505 17.3132 32.6119 18.1713 32.808C19.1425 33.0299 20.2761 33.2466 21.2418 32.8667C21.4339 32.7911 21.8052 32.4663 22.0291 32.5147C22.7432 32.6691 23.4501 33.1751 24.1689 33.3848C24.3701 33.4435 25.0116 33.7314 25.1953 33.463C25.4248 33.1277 25.7693 32.9107 26.0564 32.6467C26.3402 32.3857 26.7302 32.0747 27.1176 32.0747C27.2284 32.0747 27.3208 32.2412 27.3177 32.0063C27.3095 31.3799 27.015 30.8674 26.761 30.3345C26.3261 29.422 25.8733 28.529 25.378 27.6557C24.9648 26.9273 24.471 26.1626 24.2733 25.3141C24.0917 24.535 24.04 23.7735 23.7513 23.0166C23.3995 22.0939 23.1993 21.1164 23.299 20.108C23.338 19.7137 23.3515 19.2759 23.4556 18.8957C23.5446 18.5707 23.7014 18.7784 23.8731 18.7784C24.0066 18.7784 24.1336 18.5658 24.2776 18.5389C24.4561 18.5054 24.0497 18.8554 23.9253 19.0033C23.4419 19.578 22.9636 20.1581 22.4857 20.7386C21.5984 21.8166 20.7573 22.8966 19.724 23.8036C18.6111 24.7805 17.7122 26.0337 16.7665 27.2059C16.1916 27.9186 15.668 28.6307 15.2182 29.435C14.7534 30.2661 13.5657 30.0636 12.9522 30.6669C12.5589 31.0537 13.0556 31.7908 13.2219 32.2018C13.3153 32.4328 12.7667 32.4764 12.6782 32.4267C12.2762 32.2008 11.8966 31.9366 11.5126 31.6739C11.347 31.5606 10.8239 31.3504 10.7385 31.1264C10.6857 30.9881 10.9918 31.2241 11.1169 31.2779C11.7055 31.5311 12.2893 31.7981 12.8696 32.0747C13.4798 32.3656 14.0866 32.6637 14.6745 33.0084C14.8572 33.1156 15.1134 33.3452 15.3313 33.3897C15.6331 33.4514 15.798 33.1029 16.1228 33.3115C16.5658 33.596 16.9102 33.6586 17.4102 33.6586" stroke="#E0E0E0" stroke-width="14.6341" stroke-linecap="round"/>
</g>
<mask id="mask1_627_1427" style="mask-type:alpha" maskUnits="userSpaceOnUse" x="0" y="0" width="40" height="40">
<circle cx="20" cy="20" r="20" fill="#A5A5A5"/>
</mask>
<g mask="url(#mask1_627_1427)">
<path d="M15.3184 20.5625V20.9447" stroke="#7D7D7D" stroke-width="1.46341" stroke-linecap="round"/>
<path d="M21.5862 20.4863C21.5862 20.6416 21.6518 20.9503 21.5098 21.0214" stroke="#7D7D7D" stroke-width="1.46341" stroke-linecap="round"/>
<path d="M16.7695 24.3846C16.9963 24.1579 17.6775 23.3858 18.0307 23.582C18.1886 23.6697 18.3653 23.7637 18.4936 23.892C18.6598 24.0582 18.821 24.2444 19.0202 24.3719C19.1678 24.4664 19.3111 24.4421 19.3684 24.6139" stroke="#7D7D7D" stroke-width="1.46341" stroke-linecap="round"/>
<path d="M17.6113 22.2445C17.7174 22.1597 17.8676 22.1336 17.9935 22.0917" stroke="#7D7D7D" stroke-width="1.46341" stroke-linecap="round"/>
</g>
</svg>
