<svg width="20" height="19" viewBox="0 0 20 19" fill="none" xmlns="http://www.w3.org/2000/svg">
<path d="M5.93555 4.02003V5.02003C6.29599 5.02003 6.62854 4.82606 6.80598 4.51231L5.93555 4.02003ZM7.42305 1.38989V0.389893C7.0626 0.389893 6.73005 0.583867 6.55261 0.897609L7.42305 1.38989ZM12.948 1.38989L13.8185 0.89761C13.641 0.583867 13.3085 0.389893 12.948 0.389893V1.38989ZM14.4355 4.02003L13.5651 4.51231C13.7426 4.82605 14.0751 5.02003 14.4355 5.02003V4.02003ZM2.68555 15.1981V6.21181H0.685547V15.1981H2.68555ZM3.81055 5.02003H5.93555V3.02003H3.81055V5.02003ZM6.80598 4.51231L8.29348 1.88218L6.55261 0.897609L5.06511 3.52775L6.80598 4.51231ZM7.42305 2.38989H12.948V0.389893H7.42305V2.38989ZM12.0776 1.88218L13.5651 4.51231L15.306 3.52775L13.8185 0.89761L12.0776 1.88218ZM14.4355 5.02003H16.5605V3.02003H14.4355V5.02003ZM17.6855 6.21181V15.1981H19.6855V6.21181H17.6855ZM17.6855 15.1981C17.6855 15.8857 17.1529 16.3899 16.5605 16.3899V18.3899C18.3154 18.3899 19.6855 16.9315 19.6855 15.1981H17.6855ZM16.5605 5.02003C17.1529 5.02003 17.6855 5.52422 17.6855 6.21181H19.6855C19.6855 4.47843 18.3154 3.02003 16.5605 3.02003V5.02003ZM2.68555 6.21181C2.68555 5.52421 3.21817 5.02003 3.81055 5.02003V3.02003C2.05572 3.02003 0.685547 4.47843 0.685547 6.21181H2.68555ZM3.81055 16.3899C3.21817 16.3899 2.68555 15.8857 2.68555 15.1981H0.685547C0.685547 16.9315 2.05572 18.3899 3.81055 18.3899V16.3899ZM12.373 10.157C12.373 11.4499 11.3647 12.4447 10.1855 12.4447V14.4447C12.5272 14.4447 14.373 12.4956 14.373 10.157H12.373ZM10.1855 12.4447C9.00637 12.4447 7.99805 11.4499 7.99805 10.157H5.99805C5.99805 12.4956 7.84391 14.4447 10.1855 14.4447V12.4447ZM7.99805 10.157C7.99805 8.86418 9.00637 7.86934 10.1855 7.86934V5.86934C7.84391 5.86934 5.99805 7.81839 5.99805 10.157H7.99805ZM10.1855 7.86934C11.3647 7.86934 12.373 8.86418 12.373 10.157H14.373C14.373 7.81839 12.5272 5.86934 10.1855 5.86934V7.86934ZM16.5605 16.3899H3.81055V18.3899H16.5605V16.3899Z" fill="white"/>
</svg>
