<?xml version="1.0" encoding="UTF-8"?>
<svg version="1.1" xmlns="http://www.w3.org/2000/svg" width="327" height="323">
<path d="M0 0 C13.23039123 10.51069721 21.18184159 23.14674984 23.52734375 40.0078125 C24.1685211 47.13434109 23.35149463 53.36009532 21.46484375 60.1953125 C19.84787928 66.14877659 18.833831 70.98518769 20.52734375 77.0078125 C20.73230469 77.77222656 20.93726563 78.53664063 21.1484375 79.32421875 C23.73277004 87.42344275 28.00711575 94.76075561 31.9921875 102.23046875 C40.92731958 119.0135304 50.24412844 139.23268826 45.4296875 158.7421875 C40.22829533 171.80196004 23.04960936 180.88536948 11.52734375 188.0078125 C10.89650879 188.40000977 10.26567383 188.79220703 9.61572266 189.19628906 C-21.52328848 208.1324965 -62.17999692 212.95904104 -97.47265625 205.0078125 C-103.81086325 203.45287854 -110.06283963 201.6514045 -116.28759766 199.69384766 C-118.06550343 199.13564484 -119.8519609 198.6047358 -121.640625 198.08203125 C-146.29192917 190.21300677 -169.14906395 169.51723601 -185.47265625 150.0078125 C-186.04242188 149.33363281 -186.6121875 148.65945312 -187.19921875 147.96484375 C-191.33310356 142.36446907 -191.47004731 136.75628909 -190.47265625 130.0078125 C-188.35723175 121.98533401 -185.00002917 114.99560756 -180.875 107.84765625 C-179.29104053 104.64002801 -178.38517847 101.52729503 -177.47265625 98.0703125 C-174.56409946 87.20774328 -170.1528587 79.06872559 -162.328125 70.96875 C-159.38767866 67.8611625 -159.29282232 65.76758634 -159.04296875 61.58203125 C-158.97166748 60.48117188 -158.90036621 59.3803125 -158.8269043 58.24609375 C-158.75125244 57.07433594 -158.67560059 55.90257812 -158.59765625 54.6953125 C-157.16038581 34.71738917 -153.31381825 19.13630012 -138.34765625 4.8828125 C-127.30583595 -4.47751232 -113.67685008 -9.84656664 -99.0859375 -9.2734375 C-90.59311355 -8.3594116 -83.37937653 -6.62435831 -75.91015625 -2.4296875 C-72.1247326 -0.5667281 -70.42547625 0.25041243 -66.296875 -0.80078125 C-64.11512722 -1.86901185 -61.96264875 -2.9986545 -59.83984375 -4.1796875 C-41.01761006 -14.3113771 -17.33351553 -12.04223184 0 0 Z " fill="#E0E0E0" transform="translate(218.47265625,103.9921875)"/>
<path d="M0 0 C2 2 2 2 2.125 4.625 C2.08375 5.40875 2.0425 6.1925 2 7 C0.02 7.99 0.02 7.99 -2 9 C-2 9.66 -2 10.32 -2 11 C-1.27425781 11.26296875 -0.54851562 11.5259375 0.19921875 11.796875 C4.73408286 13.74490589 8.54340704 16.47735749 12 20 C12.75 23.25 12.75 23.25 12 26 C10.8125 27.875 10.8125 27.875 9 29 C5.96719553 29.33360849 4.41900455 29.245699 1.76171875 27.6875 C1.07722656 27.130625 0.39273438 26.57375 -0.3125 26 C-1.00988281 25.443125 -1.70726562 24.88625 -2.42578125 24.3125 C-2.94527344 23.879375 -3.46476563 23.44625 -4 23 C-6.46800047 24.15173355 -8.04783565 25.04783565 -10 27 C-13 27.25 -13 27.25 -16 27 C-18 25 -18 25 -18.25 22.0625 C-18 19 -18 19 -16 16 C-15.34 16 -14.68 16 -14 16 C-14 15.34 -14 14.68 -14 14 C-12.35 13.34 -10.7 12.68 -9 12 C-9 11.34 -9 10.68 -9 10 C-9.66 10 -10.32 10 -11 10 C-11.8125 6.75 -11.8125 6.75 -12 3 C-8.37690737 -1.52886579 -5.39261924 -1.42446546 0 0 Z " fill="#7F7F7F" transform="translate(142,172)"/>
<path d="M0 0 C1.8125 1.0625 1.8125 1.0625 3 3 C3.3033515 6.33686647 3.20956484 9.11517066 2.4375 12.375 C0.11139737 15.00450732 -2.64329111 14.7513549 -6 15 C-7.5625 13.5625 -7.5625 13.5625 -9 11 C-9.11531422 7.9084807 -8.90416158 4.96427656 -8 2 C-4.76746204 -0.15502531 -3.74849077 -0.46856135 0 0 Z " fill="#818181" transform="translate(168,159)"/>
<path d="M0 0 C3.0625 0.3125 3.0625 0.3125 4.9375 1.375 C6.70523274 4.4194286 6.43073916 6.8756012 6.0625 10.3125 C4.9375 12.25 4.9375 12.25 3.0625 13.3125 C0 13.625 0 13.625 -2.9375 13.3125 C-4.9375 11.3125 -4.9375 11.3125 -5.203125 9.21875 C-5.19539063 8.02765625 -5.19539063 8.02765625 -5.1875 6.8125 C-5.19265625 6.0184375 -5.1978125 5.224375 -5.203125 4.40625 C-4.75316487 0.85950548 -3.40966399 0.36273021 0 0 Z " fill="#808080" transform="translate(117.9375,159.6875)"/>
</svg>
