<?xml version="1.0" encoding="UTF-8"?>
<svg version="1.1" xmlns="http://www.w3.org/2000/svg" width="193" height="193">
<path d="M0 0 C2.50284736 1.97935105 4.94105869 4.01816897 7.37109375 6.0859375 C8.38623047 6.88257813 8.38623047 6.88257813 9.421875 7.6953125 C26.77220959 21.74247718 37.18345264 44.35924624 40.37109375 66.0859375 C42.15570805 95.22315053 36.64568399 120.43449976 17.37109375 143.0859375 C16.84 143.76269531 16.30890625 144.43945312 15.76171875 145.13671875 C1.71455407 162.48705334 -20.90221499 172.89829639 -42.62890625 176.0859375 C-71.76611928 177.8705518 -96.97746851 172.36052774 -119.62890625 153.0859375 C-120.30566406 152.55484375 -120.98242188 152.02375 -121.6796875 151.4765625 C-139.03002209 137.42939782 -149.44126514 114.81262876 -152.62890625 93.0859375 C-154.41352055 63.94872447 -148.90349649 38.73737524 -129.62890625 16.0859375 C-128.83226562 15.07080078 -128.83226562 15.07080078 -128.01953125 14.03515625 C-98.04520863 -22.98758382 -37.47927733 -27.28803253 0 0 Z " fill="#DFDFDF" transform="translate(152.62890625,16.9140625)"/>
<path d="M0 0 C2.50284736 1.97935105 4.94105869 4.01816897 7.37109375 6.0859375 C8.38623047 6.88257813 8.38623047 6.88257813 9.421875 7.6953125 C26.77220959 21.74247718 37.18345264 44.35924624 40.37109375 66.0859375 C41.91776398 91.33826235 37.97286095 111.08697621 25.37109375 133.0859375 C25.04109375 133.0859375 24.71109375 133.0859375 24.37109375 133.0859375 C24.27054688 132.17457031 24.17 131.26320312 24.06640625 130.32421875 C22.04177696 116.3875582 16.15982543 104.30033919 9.13671875 92.1796875 C5.50541034 85.81686391 5.08616339 81.09464856 6.37109375 74.0859375 C6.70109375 73.0959375 7.03109375 72.1059375 7.37109375 71.0859375 C8.12036331 57.45499518 7.23314403 47.05322597 -1.62890625 36.0859375 C-8.38993312 28.85420623 -16.60123882 24.45362521 -26.53515625 23.84765625 C-37.04683518 23.5976785 -46.58345299 24.05563533 -55.62890625 30.0859375 C-59.11738951 29.7320334 -61.72406757 28.59495388 -64.81640625 27.0234375 C-73.84350306 23.33421979 -85.48333891 23.65257334 -94.69140625 26.6484375 C-104.81894974 31.09959367 -111.88713203 38.35477166 -116.69140625 48.28125 C-119.04073444 54.76449221 -119.06888509 61.57057366 -119.16357422 68.39819336 C-119.33701407 75.42824086 -121.60813544 78.97409732 -126.06640625 84.3359375 C-131.13571302 90.79556047 -133.51210823 97.05108303 -135.0703125 105.03515625 C-135.9164097 108.14145716 -137.81664304 110.44991828 -139.62890625 113.0859375 C-140.78489103 116.04174668 -141.73582264 119.04133427 -142.62890625 122.0859375 C-145.52536112 118.72503652 -146.85596935 115.12311937 -148.19140625 110.9609375 C-148.60519531 109.72085938 -149.01898438 108.48078125 -149.4453125 107.203125 C-157.18066916 81.38605719 -152.96468935 55.03321581 -140.81640625 31.4609375 C-137.65841152 25.83322895 -133.80084097 20.98878204 -129.62890625 16.0859375 C-128.83226562 15.07080078 -128.83226562 15.07080078 -128.01953125 14.03515625 C-98.04520863 -22.98758382 -37.47927733 -27.28803253 0 0 Z " fill="#FEFEFE" transform="translate(152.62890625,16.9140625)"/>
<path d="M0 0 C2 3 2 3 1.625 5.0625 C1.41875 5.701875 1.2125 6.34125 1 7 C1 7.66 1 8.32 1 9 C2.78612311 10.80693756 2.78612311 10.80693756 5 12.625 C5.7425 13.25664063 6.485 13.88828125 7.25 14.5390625 C7.8275 15.02117187 8.405 15.50328125 9 16 C8.67 17.65 8.34 19.3 8 21 C6.375 21.75 6.375 21.75 4 22 C0.75 20.0625 0.75 20.0625 -2 18 C-2.5775 18.309375 -3.155 18.61875 -3.75 18.9375 C-7.63245823 20.77088305 -7.63245823 20.77088305 -10 21 C-11.8125 19.8125 -11.8125 19.8125 -13 18 C-13 14.68953563 -11.60544715 13.55847658 -9.375 11.0625 C-6.66369584 8.26509667 -6.66369584 8.26509667 -7.1875 5.125 C-7.455625 4.42375 -7.72375 3.7225 -8 3 C-4.93882432 0.37613513 -4.26826873 0 0 0 Z " fill="#818181" transform="translate(90,94)"/>
<path d="M0 0 C2.4375 0.1875 2.4375 0.1875 3.4375 1.1875 C3.625 4.625 3.625 4.625 3.4375 8.1875 C1.4375 10.1875 1.4375 10.1875 -1.125 10.375 C-3.5625 10.1875 -3.5625 10.1875 -4.5625 9.1875 C-4.75 5.75 -4.75 5.75 -4.5625 2.1875 C-2.5625 0.1875 -2.5625 0.1875 0 0 Z " fill="#808080" transform="translate(107.5625,85.8125)"/>
<path d="M0 0 C4.70588235 0.70588235 4.70588235 0.70588235 6 2 C6.1875 4.9375 6.1875 4.9375 6 8 C5.34 8.66 4.68 9.32 4 10 C-0.55555556 9.44444444 -0.55555556 9.44444444 -2 8 C-1.28 1.28 -1.28 1.28 0 0 Z " fill="#828282" transform="translate(71,86)"/>
</svg>
