<svg width="15" height="17" viewBox="0 0 15 17" fill="none" xmlns="http://www.w3.org/2000/svg">
<path d="M1.68555 3.05788C1.68555 2.00543 2.40285 1.38989 3.01998 1.38989H12.3511C12.9682 1.38989 13.6855 2.00543 13.6855 3.05788V13.7223C13.6855 14.433 13.3511 14.9473 12.9601 15.2004C12.5842 15.4437 12.1404 15.4686 11.7215 15.1817C11.7214 15.1817 11.7213 15.1816 11.7212 15.1815L9.45129 13.625C9.45102 13.6248 9.45075 13.6246 9.45048 13.6244C8.37176 12.8819 6.99932 12.8819 5.92061 13.6244C5.92034 13.6246 5.92007 13.6248 5.9198 13.625L3.64991 15.1815C3.64982 15.1816 3.64973 15.1817 3.64964 15.1817C3.23072 15.4686 2.78685 15.4437 2.41098 15.2004C2.01997 14.9473 1.68555 14.433 1.68555 13.7223V3.05788Z" stroke="#9f9f9f" stroke-width="2"/>
</svg>
