<svg version="1.1" xmlns="http://www.w3.org/2000/svg" xmlns:xlink="http://www.w3.org/1999/xlink" width="76" height="41" viewBox="0,0,256,138.09375"><g fill="none" fill-rule="nonzero" stroke="none" stroke-width="none" stroke-linecap="none" stroke-linejoin="none" stroke-miterlimit="10" stroke-dasharray="" stroke-dashoffset="0" font-family="none" font-weight="none" font-size="none" text-anchor="none" style="mix-blend-mode: normal"><g transform="translate(0,3.42852) scale(3.36842,3.36842)"><path d="M41.6973,34.832v3.1289h-7.4414v-3.1289zM35.7324,35.9453v0.9024h4.5v-0.9024zM42.3535,28.1758v1.125h-8.7539v-1.125h3.6445v-0.8555h1.5v0.8555zM37.9941,29.5703c2.3086,0.0117 3.586,0.5156 3.586,1.5235c0,0.8906 -1.002,1.4003 -2.836,1.5v0.5273h4.1133v1.1719h-9.7265v-1.1719h4.1132v-0.5273c-1.8281,-0.0997 -2.8476,-0.6094 -2.8359,-1.5c-0.0117,-1.0079 1.2891,-1.5118 3.5859,-1.5235zM37.9941,30.5781c-1.3476,0 -1.9921,0.1407 -1.9921,0.5157c0,0.3632 0.6445,0.5156 1.9921,0.5156c1.3594,0 1.9805,-0.1524 1.9805,-0.5156c0,-0.375 -0.6211,-0.5157 -1.9805,-0.5157z" fill="#d2d1cf" stroke="none" stroke-width="1" stroke-linecap="butt" stroke-linejoin="miter"></path><path d="M29,7.41605c0,-0.3694 0.188,-0.71595 0.5046,-0.93002l7.8,-5.27486c0.4163,-0.28156 0.9745,-0.28156 1.3908,0l7.8,5.27486c0.3166,0.21408 0.5046,0.56062 0.5046,0.93002v9.87215c0,0.9454 -0.8059,1.7118 -1.8,1.7118h-14.4c-0.9941,0 -1.8,-0.7664 -1.8,-1.7118z" fill="#d2d1cf" stroke="none" stroke-width="1" stroke-linecap="butt" stroke-linejoin="miter"></path><path d="M35,19v-6.8472c0,-0.6302 0.5373,-1.1412 1.2,-1.1412h3.6c0.6627,0 1.2,0.511 1.2,1.1412v6.8472M37.3046,1.21117l-7.8,5.27486c-0.3166,0.21407 -0.5046,0.56062 -0.5046,0.93002v9.87215c0,0.9454 0.8059,1.7118 1.8,1.7118h14.4c0.9941,0 1.8,-0.7664 1.8,-1.7118v-9.87215c0,-0.3694 -0.188,-0.71594 -0.5046,-0.93002l-7.8,-5.27486c-0.4163,-0.28156 -0.9745,-0.28156 -1.3908,0z" fill="none" stroke="#d2d1cf" stroke-width="2" stroke-linecap="round" stroke-linejoin="round"></path><path d="M35,13c0,-0.5523 0.4477,-1 1,-1h4c0.5523,0 1,0.4477 1,1v7h-6z" fill="#ffffff" stroke="none" stroke-width="1" stroke-linecap="butt" stroke-linejoin="miter"></path></g></g></svg>