<?xml version="1.0" encoding="UTF-8"?>
<svg version="1.1" xmlns="http://www.w3.org/2000/svg" width="181" height="264">
<path d="M0 0 C59.73 0 119.46 0 181 0 C181 87.12 181 174.24 181 264 C121.27 264 61.54 264 0 264 C0 176.88 0 89.76 0 0 Z " fill="#FEFEFE" transform="translate(0,0)"/>
<path d="M0 0 C7.53349023 3.56528225 14.11596849 9.27309905 20.72875977 14.30249023 C25.53886488 17.95081102 30.44278202 21.42215313 35.4375 24.8125 C52.04037949 36.11837506 52.04037949 36.11837506 56 42 C56.50793457 45.370224 56.50793457 45.370224 56.51757812 49.26538086 C56.5245874 49.97823746 56.53159668 50.69109406 56.53881836 51.42555237 C56.55636429 53.77238397 56.54478761 56.11800075 56.53125 58.46484375 C56.53394622 60.10242442 56.53782972 61.74000353 56.54284668 63.37757874 C56.54873733 66.80648062 56.5401942 70.23496509 56.52148438 73.66381836 C56.4987127 78.04990657 56.51180868 82.43501471 56.53577423 86.82106686 C56.55025957 90.20210595 56.54561347 93.58291444 56.53526306 96.96396065 C56.53260238 98.58062418 56.53584233 100.19730893 56.54518127 101.81394768 C56.55539056 104.0782668 56.53978668 106.34102141 56.51757812 108.60522461 C56.51439575 109.89142197 56.51121338 111.17761932 56.50793457 112.50279236 C55.81619987 117.26549215 53.68710507 120.23571555 50.40429688 123.66870117 C43.75328979 128.35157276 36.26786518 127.55421962 28.5 127.3125 C27.09118556 127.28737733 25.6823278 127.26457117 24.2734375 127.24414062 C20.84784159 127.18548316 17.4244877 127.10343481 14 127 C13.99413376 126.41784225 13.98826752 125.83568451 13.98222351 125.23588562 C13.91836466 119.18501039 13.83396496 113.13467076 13.73754883 107.08422852 C13.70426314 104.82518569 13.67624267 102.56605897 13.65356445 100.30688477 C13.62008574 97.06229852 13.56777282 93.81848367 13.51171875 90.57421875 C13.50532883 89.56163498 13.4989389 88.54905121 13.49235535 87.50578308 C13.47256119 86.56503433 13.45276703 85.62428558 13.43237305 84.6550293 C13.42126999 83.82674118 13.41016693 82.99845306 13.39872742 82.14506531 C12.90584886 79.4934877 12.147161 78.59526979 10 77 C6.93348777 76.55191817 6.93348777 76.55191817 3.43359375 76.63671875 C1.4990332 76.63768555 1.4990332 76.63768555 -0.47460938 76.63867188 C-1.48044067 76.65111938 -1.48044067 76.65111938 -2.5065918 76.66381836 C-4.55882888 76.68745771 -6.60977033 76.68437148 -8.66210938 76.67773438 C-15.43339304 76.17213756 -15.43339304 76.17213756 -21 79 C-21.33034828 81.14052502 -21.33034828 81.14052502 -21.31884766 83.63330078 C-21.33871735 84.59414581 -21.35858704 85.55499084 -21.37905884 86.54495239 C-21.39638565 88.10438065 -21.39638565 88.10438065 -21.4140625 89.6953125 C-21.43342865 90.75789276 -21.4527948 91.82047302 -21.4727478 92.91525269 C-21.53266084 96.31841943 -21.57897598 99.72161978 -21.625 103.125 C-21.66316897 105.4284004 -21.70222005 107.73178636 -21.7421875 110.03515625 C-21.83837187 115.68997628 -21.92338481 121.34488283 -22 127 C-26.30495015 127.09935088 -30.60928183 127.17169268 -34.91503906 127.21972656 C-36.37772252 127.23976332 -37.84032666 127.26700104 -39.30273438 127.30175781 C-41.4129601 127.35063225 -43.52212136 127.37304659 -45.6328125 127.390625 C-46.90012207 127.41157227 -48.16743164 127.43251953 -49.47314453 127.45410156 C-54.74365207 126.77549544 -58.5286919 124.05598843 -61.8125 119.9375 C-65.05646451 115.58131908 -65.1347332 112.54651307 -65.17700195 107.23706055 C-65.18357315 106.55375671 -65.19014435 105.87045288 -65.19691467 105.16644287 C-65.21661494 102.90653366 -65.22830282 100.6466908 -65.23828125 98.38671875 C-65.24235678 97.61364695 -65.2464323 96.84057514 -65.25063133 96.04407692 C-65.27147801 91.95232029 -65.28578583 87.86059705 -65.29516602 83.76879883 C-65.30622837 79.54866229 -65.34062976 75.32905332 -65.38033772 71.1091032 C-65.40651632 67.85851581 -65.41485891 64.60805391 -65.41844749 61.35737038 C-65.42331017 59.80207569 -65.43491519 58.24678649 -65.45348549 56.69159508 C-65.47790529 54.51101544 -65.47690771 52.33179833 -65.4699707 50.15112305 C-65.47583694 48.91218796 -65.48170319 47.67325287 -65.48774719 46.39677429 C-64.80480616 41.64062891 -62.67568818 38.53647442 -59.16333008 35.31591797 C-58.53837646 34.87908691 -57.91342285 34.44225586 -57.26953125 33.9921875 C-56.55780762 33.48671387 -55.84608398 32.98124023 -55.11279297 32.46044922 C-54.35369629 31.93725098 -53.59459961 31.41405273 -52.8125 30.875 C-52.01730957 30.31441895 -51.22211914 29.75383789 -50.40283203 29.17626953 C-48.75065073 28.012849 -47.0953432 26.85385596 -45.43701172 25.69921875 C-43.14825581 24.10337212 -40.87078447 22.49300206 -38.59765625 20.875 C-31.45845397 15.79770559 -24.27518991 10.78479812 -17.0625 5.8125 C-16.38171387 5.34247559 -15.70092773 4.87245117 -14.99951172 4.38818359 C-9.87100772 0.86604028 -6.3425405 -1.20810295 0 0 Z " fill="#D2D1CF" transform="translate(89,17)"/>
<path d="M0 0 C1.52367187 -0.02416992 1.52367187 -0.02416992 3.078125 -0.04882812 C9.88429617 -0.05324772 15.44145639 0.32792787 20.625 5.1875 C21.96056237 8.02557004 21.674829 9.38797635 20.625 12.3125 C18.47314427 15.21750524 16.06990785 16.33893909 12.625 17.3125 C9.61662091 17.46923908 6.63421963 17.43050861 3.625 17.3125 C3.625 18.9625 3.625 20.6125 3.625 22.3125 C12.205 22.3125 20.785 22.3125 29.625 22.3125 C29.625 23.9625 29.625 25.6125 29.625 27.3125 C10.485 27.3125 -8.655 27.3125 -28.375 27.3125 C-28.375 25.6625 -28.375 24.0125 -28.375 22.3125 C-20.125 22.3125 -11.875 22.3125 -3.375 22.3125 C-3.375 20.6625 -3.375 19.0125 -3.375 17.3125 C-3.94347656 17.35890625 -4.51195313 17.4053125 -5.09765625 17.453125 C-11.08780286 17.73313185 -14.65651285 17.14627081 -19.375 13.3125 C-20.5625 9.8125 -20.5625 9.8125 -20.375 6.3125 C-15.46831301 -0.67009303 -7.67795124 -0.02417491 0 0 Z " fill="#A0A0A0" transform="translate(84.375,203.6875)"/>
<path d="M0 0 C14.52 0 29.04 0 44 0 C44 6.27 44 12.54 44 19 C29.48 19 14.96 19 0 19 C0 12.73 0 6.46 0 0 Z " fill="#A4A4A4" transform="translate(63,235)"/>
<path d="M0 0 C2.31 0 4.62 0 7 0 C7 1.98 7 3.96 7 6 C14.26 6 21.52 6 29 6 C29 7.65 29 9.3 29 11 C12.17 11 -4.66 11 -22 11 C-22 9.35 -22 7.7 -22 6 C-14.74 6 -7.48 6 0 6 C0 4.02 0 2.04 0 0 Z " fill="#9F9F9F" transform="translate(81,190)"/>
<path d="M0 0 C10.23 0 20.46 0 31 0 C31 2.64 31 5.28 31 8 C20.77 8 10.54 8 0 8 C0 5.36 0 2.72 0 0 Z " fill="#FAFAFA" transform="translate(69,241)"/>
<path d="M0 0 C1.91619141 -0.00773438 1.91619141 -0.00773438 3.87109375 -0.015625 C7.44800755 0.24176139 10.23566405 0.95423082 13.5625 2.25 C13.5625 3.9 13.5625 5.55 13.5625 7.25 C9.0282864 9.50811034 5.01319102 9.58387604 0.0625 9.5625 C-0.68386719 9.57861328 -1.43023437 9.59472656 -2.19921875 9.61132812 C-6.79670653 9.6153967 -9.63610955 9.10858528 -13.4375 6.25 C-13.25 4.375 -13.25 4.375 -12.4375 2.25 C-8.31848245 0.04393442 -4.61386947 -0.01858558 0 0 Z " fill="#F9F9F9" transform="translate(84.4375,207.75)"/>
</svg>
