<svg width="76" height="41" viewBox="0 0 76 41" fill="none" xmlns="http://www.w3.org/2000/svg">
<path d="M41.6973 34.832V37.9609H34.2559V34.832H41.6973ZM35.7324 35.9453V36.8477H40.2324V35.9453H35.7324ZM42.3535 28.1758V29.3008H33.5996V28.1758H37.2441V27.3203H38.7441V28.1758H42.3535ZM37.9941 29.5703C40.3027 29.582 41.5801 30.0859 41.5801 31.0938C41.5801 31.9844 40.5781 32.4941 38.7441 32.5938V33.1211H42.8574V34.293H33.1309V33.1211H37.2441V32.5938C35.416 32.4941 34.3965 31.9844 34.4082 31.0938C34.3965 30.0859 35.6973 29.582 37.9941 29.5703ZM37.9941 30.5781C36.6465 30.5781 36.002 30.7188 36.002 31.0938C36.002 31.457 36.6465 31.6094 37.9941 31.6094C39.3535 31.6094 39.9746 31.457 39.9746 31.0938C39.9746 30.7188 39.3535 30.5781 37.9941 30.5781Z" fill="#FFB418"/>
<path d="M29 7.41605C29 7.04665 29.188 6.7001 29.5046 6.48603L37.3046 1.21117C37.7209 0.929609 38.2791 0.92961 38.6954 1.21117L46.4954 6.48603C46.812 6.70011 47 7.04665 47 7.41605V17.2882C47 18.2336 46.1941 19 45.2 19H30.8C29.8059 19 29 18.2336 29 17.2882V7.41605Z" fill="#FFB418"/>
<path d="M35 19V12.1528C35 11.5226 35.5373 11.0116 36.2 11.0116H39.8C40.4627 11.0116 41 11.5226 41 12.1528V19M37.3046 1.21117L29.5046 6.48603C29.188 6.7001 29 7.04665 29 7.41605V17.2882C29 18.2336 29.8059 19 30.8 19H45.2C46.1941 19 47 18.2336 47 17.2882V7.41605C47 7.04665 46.812 6.70011 46.4954 6.48603L38.6954 1.21117C38.2791 0.92961 37.7209 0.929609 37.3046 1.21117Z" stroke="#FFB418" stroke-width="2" stroke-linecap="round" stroke-linejoin="round"/>
<path d="M35 13C35 12.4477 35.4477 12 36 12H40C40.5523 12 41 12.4477 41 13V20H35V13Z" fill="white"/>
</svg>
