<svg version="1.1" xmlns="http://www.w3.org/2000/svg" xmlns:xlink="http://www.w3.org/1999/xlink" width="76" height="42" viewBox="0,0,256,141.46875"><g fill="none" fill-rule="nonzero" stroke="none" stroke-width="none" stroke-linecap="butt" stroke-linejoin="none" stroke-miterlimit="10" stroke-dasharray="" stroke-dashoffset="0" font-family="none" font-weight="none" font-size="none" text-anchor="none" style="mix-blend-mode: normal"><g transform="translate(-1.14476,3.37252) scale(3.36842,3.36842)"><path d="M31.8184,28.4961v10.5h-1.0664v-5.3789h-1.3477v4.8398h-1.043v-9.75h1.043v3.9961h1.3477v-4.207zM24.4355,29.7383v5.6015c0.9727,-0.0058 2.0333,-0.082 3.2227,-0.3164l0.1172,0.9727c-1.4414,0.2578 -2.6484,0.3281 -3.7734,0.3281h-0.6797v-6.5859zM37.0918,30.6875c0,1.3594 1.0078,2.6367 2.625,3.1523l-0.5742,0.8672c-1.2071,-0.3984 -2.1211,-1.2246 -2.5899,-2.2734c-0.4746,1.1426 -1.4062,2.0449 -2.6601,2.4844l-0.5742,-0.8789c1.6289,-0.5508 2.6367,-1.9102 2.6484,-3.3516v-0.457h-2.3555v-0.9024h5.7891v0.9024h-2.3086zM41.9082,28.5078v7.6641h-1.1133v-7.6641zM42.2246,37.8711v0.9023h-7.1836v-3.3281h1.125v2.4258zM51.8223,28.4844v3.0468h1.5351v0.9258h-1.5351v3.6328h-1.1133v-7.6054zM48.7285,29.3867v0.9024h-3.5859v3.0586c2.0449,0.0058 3.1992,-0.0586 4.5117,-0.3282l0.1289,0.9024c-1.418,0.2812 -2.6602,0.3515 -4.9102,0.3515h-0.832v-4.8867zM52.2676,37.8711v0.9023h-7.1016v-3.4687h1.1133v2.5664z" fill="#fcc419" stroke="none" stroke-width="1" stroke-linejoin="miter"></path><path d="M37.56,1.31391c0.2066,-0.41855 0.8034,-0.41855 1.01,0l2.674,5.41812c0.082,0.16621 0.2406,0.28141 0.424,0.30806l5.9793,0.86884c0.4619,0.06711 0.6463,0.63474 0.3121,0.96053l-4.3267,4.21744c-0.1327,0.1294 -0.1933,0.3157 -0.1619,0.4984l1.0213,5.9551c0.0789,0.46 -0.4039,0.8109 -0.817,0.5937l-5.348,-2.8117c-0.1641,-0.0862 -0.3601,-0.0862 -0.5241,0l-5.348,2.8117c-0.4132,0.2172 -0.896,-0.1337 -0.8171,-0.5937l1.0214,-5.9551c0.0313,-0.1827 -0.0293,-0.369 -0.162,-0.4984l-4.3266,-4.21744c-0.3343,-0.32579 -0.1498,-0.89342 0.3121,-0.96053l5.9792,-0.86884c0.1834,-0.02665 0.342,-0.14185 0.424,-0.30806z" fill="#d2d1cf" stroke="#d2d1cf" stroke-width="2" stroke-linejoin="round"></path></g></g><g fill="#ffce29" fill-rule="nonzero" stroke="none" stroke-width="1" stroke-linecap="butt" stroke-linejoin="miter" stroke-miterlimit="10" stroke-dasharray="" stroke-dashoffset="0" font-family="none" font-weight="none" font-size="none" text-anchor="none" style="mix-blend-mode: normal"><g transform="translate(88.99533,3.44431) scale(3.52159,3.52159)" id="overlay"><path d="M12.678,0.992l2.43,4.902l5.435,0.786c1.466,0.212 2.052,2.005 0.991,3.034l-3.933,3.815l0.928,5.388c0.25,1.453 -1.282,2.561 -2.593,1.875l-4.861,-2.544l-4.861,2.544c-1.311,0.686 -2.843,-0.422 -2.593,-1.875l0.928,-5.388l-3.931,-3.815c-1.061,-1.029 -0.476,-2.822 0.99,-3.034l5.435,-0.786l2.43,-4.902c0.655,-1.323 2.549,-1.323 3.205,0z"></path></g></g></svg>