<svg version="1.1" xmlns="http://www.w3.org/2000/svg" xmlns:xlink="http://www.w3.org/1999/xlink" width="77" height="42" viewBox="0,0,256,139.63542"><g fill="none" fill-rule="none" stroke="none" stroke-width="none" stroke-linecap="none" stroke-linejoin="none" stroke-miterlimit="10" stroke-dasharray="" stroke-dashoffset="0" font-family="none" font-weight="none" font-size="none" text-anchor="none" style="mix-blend-mode: normal"><g transform="translate(0.7793,4.99303) scale(3.32468,3.32468)"><path d="M22.0352,30.6875c0,1.3594 1.0078,2.6367 2.625,3.1523l-0.5743,0.8672c-1.207,-0.3984 -2.1211,-1.2246 -2.5898,-2.2734c-0.4746,1.1426 -1.4063,2.0449 -2.6602,2.4844l-0.5742,-0.8789c1.6289,-0.5508 2.6367,-1.9102 2.6485,-3.3516v-0.457h-2.3555v-0.9024h5.7891v0.9024h-2.3086zM26.8516,28.5078v7.6641h-1.1133v-7.6641zM27.168,37.8711v0.9023h-7.1836v-3.3281h1.125v2.4258zM36.7656,28.4844v3.0468h1.5352v0.9258h-1.5352v3.6328h-1.1133v-7.6054zM33.6719,29.3867v0.9024h-3.586v3.0586c2.045,0.0058 3.1993,-0.0586 4.5118,-0.3282l0.1289,0.9024c-1.418,0.2812 -2.6602,0.3515 -4.9102,0.3515h-0.832v-4.8867zM37.2109,37.8711v0.9023h-7.1015v-3.4687h1.1133v2.5664zM42.5312,31.168c-0.0117,1.8632 1.0665,3.7617 2.6368,4.5234l-0.6914,0.8906c-1.1426,-0.5918 -2.0274,-1.7695 -2.4844,-3.1758c-0.4746,1.5 -1.3945,2.754 -2.5899,3.375l-0.6914,-0.9023c1.6172,-0.7734 2.7071,-2.7891 2.7071,-4.7109v-1.793h1.1132zM47.0664,28.4961v4.1836h1.6875v0.9492h-1.6875v5.3672h-1.1133v-10.5zM53.207,29.6094v3.7617h-2.5429v2.2148c1.0371,-0.0175 2.0273,-0.082 3.2226,-0.2812l0.0938,0.9141c-1.3828,0.2343 -2.4727,0.2812 -3.7149,0.2812h-0.6797v-4.0195h2.5547v-1.9688h-2.5664v-0.9023zM58.2695,28.4961v10.5h-1.0664v-10.5zM56.1367,28.6953v9.7617h-1.0547v-3.75h-1.3125v-0.914h1.3125v-1.6992h-1.3125v-0.9024h1.3125v-2.4961z" fill="#ffb418" fill-rule="nonzero" stroke="none" stroke-width="1" stroke-linecap="butt" stroke-linejoin="miter"></path><path d="M32,0c-1.6569,0 -3,1.34315 -3,3v15c0,1.6569 1.3431,3 3,3h6.2907c0.8645,0 1.3881,-1.0931 1.0859,-1.903c-0.2435,-0.6528 -0.3766,-1.3594 -0.3766,-2.097c0,-3.3137 2.6863,-6 6,-6c0.2106,0 0.4186,0.0108 0.6236,0.032c0.6865,0.0709 1.3764,-0.4145 1.3764,-1.10466v-6.92734c0,-1.65685 -1.3431,-3 -3,-3z" fill="#ffb418" fill-rule="evenodd" stroke="none" stroke-width="1" stroke-linecap="butt" stroke-linejoin="miter"></path><path d="M48.3636,17.1818c0,1.7573 -1.4245,3.1818 -3.1818,3.1818c-1.7573,0 -3.1818,-1.4245 -3.1818,-3.1818c0,-1.7573 1.4245,-3.1818 3.1818,-3.1818c1.7573,0 3.1818,1.4245 3.1818,3.1818z" fill="#ffffff" fill-rule="nonzero" stroke="none" stroke-width="1" stroke-linecap="butt" stroke-linejoin="miter"></path><path d="M47.7273,19.7273l1.2727,1.2727M48.3636,17.1818c0,1.7573 -1.4245,3.1818 -3.1818,3.1818c-1.7573,0 -3.1818,-1.4245 -3.1818,-3.1818c0,-1.7573 1.4245,-3.1818 3.1818,-3.1818c1.7573,0 3.1818,1.4245 3.1818,3.1818z" fill="none" fill-rule="nonzero" stroke="#ffb418" stroke-width="2" stroke-linecap="round" stroke-linejoin="round"></path><path d="M33,5h7.2M33,8.6h7.2M33,12.2h3.6" fill="none" fill-rule="nonzero" stroke="#ffffff" stroke-width="2" stroke-linecap="round" stroke-linejoin="round"></path></g></g></svg>