<svg version="1.1" xmlns="http://www.w3.org/2000/svg" xmlns:xlink="http://www.w3.org/1999/xlink" width="76" height="42" viewBox="0,0,256,141.46875"><g fill="none" fill-rule="nonzero" stroke="none" stroke-width="none" stroke-linecap="butt" stroke-linejoin="miter" stroke-miterlimit="10" stroke-dasharray="" stroke-dashoffset="0" font-family="none" font-weight="none" font-size="none" text-anchor="none" style="mix-blend-mode: normal"><g transform="translate(1.34737,5.05016) scale(3.36842,3.36842)"><path d="M29.7676,29.5156h1.5703l2.6836,6.5742h0.1055l2.6835,-6.5742h1.5704v8.4844h-1.2305v-6.1289h-0.082l-2.4844,6.1172h-1.0195l-2.4961,-6.1289h-0.0704v6.1406h-1.2304zM39.459,29.5156h1.4648l2.2032,3.8438h0.0937l2.2148,-3.8438h1.4649l-3.082,5.1563v3.3281h-1.2891v-3.3281z" fill="#ffb418" stroke="none" stroke-width="1"></path><path d="M28,19.1124c0,-3.7755 3.1543,-6.8362 9.6,-6.8362c6.4457,0 9.6,3.0607 9.6,6.8362c0,0.6007 -0.4382,1.0876 -0.9788,1.0876h-17.2424c-0.5406,0 -0.9788,-0.4869 -0.9788,-1.0876z" fill="#ffb418" stroke="none" stroke-width="1"></path><path d="M41.2,4.6c0,1.98822 -1.6118,3.6 -3.6,3.6c-1.9882,0 -3.6,-1.61178 -3.6,-3.6c0,-1.98823 1.6118,-3.6 3.6,-3.6c1.9882,0 3.6,1.61177 3.6,3.6z" fill="#ffb418" stroke="none" stroke-width="1"></path><path d="M28,19.1124c0,-3.7755 3.1543,-6.8362 9.6,-6.8362c6.4457,0 9.6,3.0607 9.6,6.8362c0,0.6007 -0.4382,1.0876 -0.9788,1.0876h-17.2424c-0.5406,0 -0.9788,-0.4869 -0.9788,-1.0876z" fill="none" stroke="#ffb418" stroke-width="2"></path><path d="M41.2,4.6c0,1.98822 -1.6118,3.6 -3.6,3.6c-1.9882,0 -3.6,-1.61178 -3.6,-3.6c0,-1.98823 1.6118,-3.6 3.6,-3.6c1.9882,0 3.6,1.61177 3.6,3.6z" fill="none" stroke="#ffb418" stroke-width="2"></path></g></g></svg>