<svg width="19" height="19" viewBox="0 0 19 19" fill="none" xmlns="http://www.w3.org/2000/svg">
<path d="M6.74151 13.1252L6.09507 12.3622L6.09505 12.3622L6.74151 13.1252ZM6.78551 13.083L6.07303 12.3813L6.07225 12.3821L6.78551 13.083ZM4.93409 14.6566L4.28763 13.8937L4.28763 13.8937L4.93409 14.6566ZM4.83508 14.7609L5.65589 15.3321L5.65589 15.3321L4.83508 14.7609ZM14.4295 13.1892L15.1221 12.4678L14.4295 13.1892ZM12.8869 11.7083L12.1944 12.4297L12.1944 12.4297L12.8869 11.7083ZM12.3141 11.7043L11.6318 10.9732L11.6292 10.9756L12.3141 11.7043ZM9.45682 14.3897L10.1391 15.1207L10.1417 15.1184L9.45682 14.3897ZM8.87515 14.377L8.15919 15.0751L8.16062 15.0766L8.87515 14.377ZM8.86765 14.3693L8.151 15.0667L8.15168 15.0674L8.86765 14.3693ZM8.82682 14.3296L9.48154 13.5738L9.48153 13.5737L8.82682 14.3296ZM7.43488 13.124L8.0896 12.3681L8.08959 12.3681L7.43488 13.124ZM7.39389 13.0842L8.11078 12.387L8.1101 12.3863L7.39389 13.0842ZM7.38655 13.0766L8.10276 12.3788L8.10141 12.3774L7.38655 13.0766ZM6.79342 13.075L6.08236 12.3719L6.08094 12.3733L6.79342 13.075ZM13.2854 7.88965V6.88965C12.7331 6.88965 12.2854 7.33736 12.2854 7.88965H13.2854ZM13.5714 7.88965H14.5714C14.5714 7.33736 14.1236 6.88965 13.5714 6.88965V7.88965ZM13.5714 8.13183V9.13183C14.1236 9.13183 14.5714 8.68412 14.5714 8.13183H13.5714ZM13.2854 8.13183H12.2854C12.2854 8.68412 12.7331 9.13183 13.2854 9.13183V8.13183ZM0.685547 4.38989V14.3899H2.68555V4.38989H0.685547ZM4.68555 18.3899H14.6855V16.3899H4.68555V18.3899ZM18.6855 14.3899V4.38989H16.6855V14.3899H18.6855ZM14.6855 0.389892H4.68555V2.38989H14.6855V0.389892ZM18.6855 4.38989C18.6855 2.18075 16.8947 0.389892 14.6855 0.389892V2.38989C15.7901 2.38989 16.6855 3.28532 16.6855 4.38989H18.6855ZM14.6855 18.3899C16.8947 18.3899 18.6855 16.599 18.6855 14.3899H16.6855C16.6855 15.4945 15.7901 16.3899 14.6855 16.3899V18.3899ZM0.685547 14.3899C0.685547 16.599 2.47641 18.3899 4.68555 18.3899V16.3899C3.58098 16.3899 2.68555 15.4945 2.68555 14.3899H0.685547ZM2.68555 4.38989C2.68555 3.28532 3.58098 2.38989 4.68555 2.38989V0.389892C2.47641 0.389892 0.685547 2.18075 0.685547 4.38989H2.68555ZM7.38794 13.8881C7.44409 13.8406 7.48993 13.7929 7.49878 13.7839L6.07225 12.3821C6.06836 12.3861 6.06678 12.3877 6.06554 12.3889C6.06452 12.39 6.06517 12.3893 6.06686 12.3877C6.07 12.3846 6.08006 12.3749 6.09507 12.3622L7.38794 13.8881ZM5.58054 15.4196L7.38796 13.8881L6.09505 12.3622L4.28763 13.8937L5.58054 15.4196ZM5.65589 15.3321C5.63278 15.3653 5.6118 15.3886 5.59874 15.402C5.58601 15.4151 5.57815 15.4216 5.58054 15.4196L4.28763 13.8937C4.22221 13.9491 4.11316 14.0475 4.01427 14.1897L5.65589 15.3321ZM5.68576 15.2368C5.68576 15.271 5.67527 15.3042 5.65589 15.3321L4.01427 14.1897C3.80112 14.4959 3.68576 14.8612 3.68576 15.2368H5.68576ZM5.68576 16.9732V15.2368H3.68576V16.9732H5.68576ZM5.10243 16.3898C5.42458 16.3898 5.68576 16.651 5.68576 16.9732H3.68576C3.68576 17.7556 4.32003 18.3898 5.10243 18.3898V16.3898ZM14.2691 16.3898H5.10243V18.3898H14.2691V16.3898ZM13.6858 16.9732C13.6858 16.651 13.9469 16.3898 14.2691 16.3898V18.3898C15.0515 18.3898 15.6858 17.7556 15.6858 16.9732H13.6858ZM13.6858 13.7903V16.9732H15.6858V13.7903H13.6858ZM13.737 13.9106C13.7043 13.8791 13.6858 13.8357 13.6858 13.7903H15.6858C15.6858 13.2911 15.4822 12.8135 15.1221 12.4678L13.737 13.9106ZM12.1944 12.4297L13.737 13.9106L15.1221 12.4678L13.5795 10.9869L12.1944 12.4297ZM12.9964 12.4353C12.77 12.6466 12.4179 12.6442 12.1944 12.4297L13.5795 10.9869C13.0368 10.466 12.1817 10.4599 11.6318 10.9732L12.9964 12.4353ZM10.1417 15.1184L12.9989 12.4329L11.6292 10.9756L8.77196 13.661L10.1417 15.1184ZM8.16062 15.0766C8.69386 15.6212 9.57224 15.6498 10.1391 15.1207L8.7745 13.6586C9.00817 13.4405 9.36962 13.4526 9.58969 13.6774L8.16062 15.0766ZM8.15168 15.0674L8.15919 15.0751L9.59112 13.6788L9.58361 13.6711L8.15168 15.0674ZM8.17209 15.0855C8.1582 15.0735 8.14888 15.0644 8.14598 15.0615C8.14442 15.06 8.14382 15.0593 8.14477 15.0603C8.14593 15.0615 8.14739 15.063 8.151 15.0667L9.58429 13.6718C9.57609 13.6634 9.53347 13.6187 9.48154 13.5738L8.17209 15.0855ZM6.78017 13.8799L8.17211 15.0855L9.48153 13.5737L8.0896 12.3681L6.78017 13.8799ZM6.677 13.7814C6.68527 13.7899 6.72803 13.8347 6.78017 13.8799L8.08959 12.3681C8.10353 12.3802 8.11288 12.3893 8.11581 12.3922C8.11738 12.3937 8.11798 12.3944 8.11703 12.3934C8.11587 12.3922 8.1144 12.3907 8.11078 12.387L6.677 13.7814ZM6.67034 13.7745L6.67768 13.782L8.1101 12.3863L8.10276 12.3788L6.67034 13.7745ZM7.50448 13.7781C7.2747 14.0105 6.90051 14.0098 6.67169 13.7759L8.10141 12.3774C7.54824 11.8119 6.63788 11.8101 6.08236 12.3719L7.50448 13.7781ZM7.498 13.7847L7.5059 13.7767L6.08094 12.3733L6.07303 12.3813L7.498 13.7847ZM13.2854 8.88965H13.5714V6.88965H13.2854V8.88965ZM12.5714 7.88965V8.13183H14.5714V7.88965H12.5714ZM13.5714 7.13183H13.2854V9.13183H13.5714V7.13183ZM14.2854 8.13183V7.88965H12.2854V8.13183H14.2854Z" fill="white"/>
</svg>
