<svg width="18" height="18" viewBox="0 0 18 18" fill="none" xmlns="http://www.w3.org/2000/svg">
<path d="M8.59863 1.74524C8.76281 1.41825 9.23719 1.41825 9.40138 1.74524L11.5268 5.97815C11.592 6.108 11.718 6.198 11.8638 6.21882L16.6163 6.8976C16.9834 6.95003 17.13 7.39349 16.8643 7.64801L13.4254 10.9429C13.3199 11.0439 13.2718 11.1896 13.2967 11.3323L14.1085 15.9847C14.1712 16.3441 13.7874 16.6182 13.4591 16.4485L9.20829 14.2519C9.07789 14.1845 8.92211 14.1845 8.79172 14.2519L4.54094 16.4485C4.21258 16.6182 3.82879 16.3441 3.89151 15.9847L4.70333 11.3323C4.72823 11.1896 4.6801 11.0439 4.5746 10.9429L1.13566 7.64801C0.870002 7.39349 1.01659 6.95003 1.38372 6.8976L6.13623 6.21882C6.28201 6.198 6.40804 6.108 6.47324 5.97815L8.59863 1.74524Z" stroke="white" stroke-width="2" stroke-linejoin="round"/>
</svg>
