<svg width="21" height="21" viewBox="0 0 21 21" fill="none" xmlns="http://www.w3.org/2000/svg">
<mask id="path-1-inside-1_66_368" fill="white">
<path fill-rule="evenodd" clip-rule="evenodd" d="M19.1449 15.7244C17.3733 18.5279 14.2466 20.3898 10.6851 20.3898C7.12373 20.3898 3.9972 18.5281 2.22559 15.7249C4.43603 14.2404 7.41211 13.3309 10.6856 13.3309C13.9587 13.3309 16.9345 14.2402 19.1449 15.7244Z"/>
</mask>
<path fill-rule="evenodd" clip-rule="evenodd" d="M19.1449 15.7244C17.3733 18.5279 14.2466 20.3898 10.6851 20.3898C7.12373 20.3898 3.9972 18.5281 2.22559 15.7249C4.43603 14.2404 7.41211 13.3309 10.6856 13.3309C13.9587 13.3309 16.9345 14.2402 19.1449 15.7244Z" fill="white"/>
<path d="M19.1449 15.7244L20.8356 16.7928L21.8747 15.1484L20.2598 14.064L19.1449 15.7244ZM2.22559 15.7249L1.11054 14.0646L-0.504267 15.149L0.534918 16.7934L2.22559 15.7249ZM17.4541 14.656C16.0336 16.904 13.5321 18.3898 10.6851 18.3898V22.3898C14.9611 22.3898 18.713 20.1518 20.8356 16.7928L17.4541 14.656ZM10.6851 18.3898C7.83817 18.3898 5.33682 16.9042 3.91625 14.6564L0.534918 16.7934C2.65759 20.1521 6.40929 22.3898 10.6851 22.3898V18.3898ZM3.34063 17.3852C5.18863 16.1441 7.76792 15.3309 10.6856 15.3309V11.3309C7.0563 11.3309 3.68343 12.3366 1.11054 14.0646L3.34063 17.3852ZM10.6856 15.3309C13.6029 15.3309 16.182 16.1439 18.0299 17.3848L20.2598 14.064C17.687 12.3364 14.3145 11.3309 10.6856 11.3309V15.3309Z" fill="white" mask="url(#path-1-inside-1_66_368)"/>
<circle cx="10.6855" cy="10.3899" r="9" stroke="white" stroke-width="2"/>
<circle cx="10.6859" cy="8.16768" r="2.33333" fill="white" stroke="white" stroke-width="2"/>
</svg>
