<svg width="40" height="40" viewBox="0 0 40 40" fill="none" xmlns="http://www.w3.org/2000/svg">
<circle cx="20" cy="20" r="20" fill="#C3C3C3"/>
<path d="M12 27.0937C12 23.9474 14.6286 21.3968 20 21.3968C25.3714 21.3968 28 23.9474 28 27.0937C28 27.5942 27.6348 28 27.1843 28H12.8157C12.3652 28 12 27.5942 12 27.0937Z" fill="white"/>
<path d="M23 15C23 16.6569 21.6569 18 20 18C18.3431 18 17 16.6569 17 15C17 13.3431 18.3431 12 20 12C21.6569 12 23 13.3431 23 15Z" fill="white"/>
<path d="M12 27.0937C12 23.9474 14.6286 21.3968 20 21.3968C25.3714 21.3968 28 23.9474 28 27.0937C28 27.5942 27.6348 28 27.1843 28H12.8157C12.3652 28 12 27.5942 12 27.0937Z" stroke="white" stroke-width="2"/>
<path d="M23 15C23 16.6569 21.6569 18 20 18C18.3431 18 17 16.6569 17 15C17 13.3431 18.3431 12 20 12C21.6569 12 23 13.3431 23 15Z" stroke="white" stroke-width="2"/>
</svg>
