<svg width="18" height="18" viewBox="0 0 18 18" fill="none" xmlns="http://www.w3.org/2000/svg">
<path fill-rule="evenodd" clip-rule="evenodd" d="M11.9835 1.80019C12.4519 1.33153 13.2115 1.33121 13.6803 1.79948L15.7507 3.86755C16.2197 4.33602 16.22 5.096 15.7514 5.56486L5.97772 15.3439C5.81058 15.5111 5.59776 15.6253 5.36599 15.672L1 16.5517L1.8813 12.1908C1.92805 11.9595 2.04195 11.7471 2.20876 11.5802L11.9835 1.80019Z" fill="white"/>
<path d="M10.5999 16.5517H16.5999M1 16.5517L5.36599 15.672C5.59776 15.6253 5.81058 15.5111 5.97772 15.3439L15.7514 5.56486C16.22 5.096 16.2197 4.33602 15.7507 3.86755L13.6803 1.79948C13.2115 1.33121 12.4519 1.33153 11.9835 1.80019L2.20876 11.5802C2.04195 11.7471 1.92805 11.9595 1.8813 12.1908L1 16.5517Z" stroke="white" stroke-width="2" stroke-linecap="round" stroke-linejoin="round"/>
</svg>
