<svg width="139" height="50" viewBox="0 0 139 50" fill="none" xmlns="http://www.w3.org/2000/svg">
<path d="M24.2314 20.1455C24.0428 20.7115 23.7951 21.4543 23.4886 22.3741C23.2056 23.2702 22.8872 24.2607 22.5335 25.3455C22.1797 26.4303 21.8142 27.5859 21.4368 28.8122C21.0595 30.0149 20.6704 31.1941 20.2695 32.3496C19.8922 33.5052 19.5148 34.6136 19.1375 35.6748C18.7602 36.7125 18.4182 37.6204 18.1117 38.3986C18.0173 38.5873 17.8169 38.7406 17.5103 38.8585C17.2273 38.9528 16.7674 39 16.1307 39C15.7298 39 15.3171 38.9764 14.8926 38.9293C14.4681 38.8821 14.0672 38.7878 13.6899 38.6463C13.3361 38.5048 13.0178 38.3161 12.7348 38.0803C12.4753 37.8444 12.2749 37.5497 12.1334 37.1959C11.7797 35.9932 11.4377 34.6607 11.1075 33.1986C10.801 31.7129 10.4944 30.2036 10.1878 28.6707C9.88123 27.1378 9.57465 25.6403 9.26808 24.1782C8.98508 22.6924 8.69029 21.3482 8.38372 20.1455C8.38372 20.4756 8.37193 21.0416 8.34834 21.8434C8.32476 22.6453 8.30118 23.5768 8.27759 24.638C8.25401 25.6993 8.21864 26.843 8.17147 28.0693C8.14789 29.2956 8.12431 30.4984 8.10072 31.6775C8.07714 32.8331 8.05356 33.9179 8.02997 34.932C8.00639 35.9224 7.9946 36.736 7.9946 37.3728C7.9946 38.0803 7.94743 38.5283 7.8531 38.717C7.78235 38.9057 7.64086 39 7.42861 39H5.48302C4.1388 39 3.18369 38.7406 2.6177 38.2218C2.07529 37.6794 1.80409 36.8893 1.80409 35.8517C1.80409 35.5687 1.81588 35.097 1.83947 34.4367C1.88663 33.7528 1.94559 32.951 2.01634 32.0313C2.08709 31.1115 2.15783 30.1093 2.22858 29.0244C2.32291 27.916 2.41725 26.7959 2.51158 25.6639C2.62949 24.131 2.72382 22.8575 2.79457 21.8434C2.8889 20.8058 2.95965 19.945 3.00682 19.2611C3.05398 18.5772 3.08936 18.023 3.11294 17.5985C3.16011 17.174 3.18369 16.7967 3.18369 16.4665C3.20727 16.1364 3.21906 15.8298 3.21906 15.5468C3.24265 15.2402 3.25444 14.8629 3.25444 14.4148C3.25444 14.2262 3.32519 14.0965 3.46668 14.0257C3.60818 13.9314 3.73789 13.8842 3.8558 13.8842H8.80821C9.72794 13.8842 10.4826 14.0375 11.0722 14.3441C11.6617 14.6271 12.1452 15.0752 12.5225 15.6883C12.8998 16.3015 13.2064 17.1033 13.4422 18.0938C13.6781 19.0607 13.8903 20.2162 14.079 21.5605C14.2912 22.9047 14.5153 24.4611 14.7511 26.2299C15.0105 27.975 15.3407 29.9442 15.7416 32.1374C16.1189 30.6752 16.4373 29.4607 16.6967 28.4938C16.9561 27.5269 17.1683 26.7251 17.3334 26.0884C17.5221 25.428 17.6754 24.8856 17.7933 24.4611C17.9112 24.0367 18.0173 23.6475 18.1117 23.2938C18.206 22.9165 18.3121 22.5156 18.43 22.0911C18.5479 21.6666 18.6894 21.136 18.8545 20.4992C19.0196 19.8625 19.2201 19.0725 19.4559 18.1291C19.7153 17.1622 20.0337 15.9477 20.411 14.4856C20.4582 14.3441 20.5407 14.2144 20.6586 14.0965C20.7765 13.955 20.9888 13.8842 21.2954 13.8842H26.8137C27.5684 13.8842 28.1698 13.9668 28.6178 14.1318C29.0895 14.2733 29.455 14.4856 29.7144 14.7686C29.9739 15.0516 30.1507 15.4053 30.2451 15.8298C30.3394 16.2307 30.3866 16.7024 30.3866 17.2448C30.3866 17.7872 30.3512 18.6715 30.2804 19.8979C30.2333 21.1006 30.1507 22.4684 30.0328 24.0013C29.9385 25.5106 29.8324 27.0788 29.7144 28.7061C29.6201 30.3333 29.514 31.8426 29.3961 33.234C29.3017 34.6254 29.2192 35.8045 29.1485 36.7714C29.0777 37.7383 29.0305 38.3043 29.007 38.4694C28.9834 38.658 28.9362 38.7995 28.8655 38.8939C28.7947 38.9646 28.6532 39 28.441 39H26.4954C25.1512 39 24.196 38.7406 23.6301 38.2218C23.0876 37.6794 22.8164 36.9837 22.8164 36.1347C22.8164 35.8753 22.84 35.4036 22.8872 34.7197C22.9579 34.0358 23.0405 33.234 23.1348 32.3143C23.2291 31.3945 23.3353 30.3922 23.4532 29.3074C23.5711 28.199 23.6772 27.1024 23.7716 26.0176C23.8659 24.9328 23.9484 23.8834 24.0192 22.8693C24.1135 21.8317 24.1843 20.9237 24.2314 20.1455ZM41.3286 39.3537C39.7013 39.3537 38.3453 39.1297 37.2605 38.6816C36.1993 38.21 35.3503 37.5732 34.7136 36.7714C34.0768 35.9696 33.6287 35.0381 33.3693 33.9768C33.1099 32.892 32.9802 31.7365 32.9802 30.5102C32.9802 29.0952 33.1453 27.7156 33.4754 26.3714C33.8292 25.0036 34.4188 23.789 35.2442 22.7278C36.0696 21.6666 37.1544 20.8176 38.4986 20.1809C39.8664 19.5205 41.5644 19.1904 43.5925 19.1904C46.564 19.1904 48.6864 19.9214 49.9599 21.3836C51.2569 22.8221 51.9055 24.8503 51.9055 27.468C51.9055 28.199 51.8465 29.0126 51.7286 29.9088C51.6343 30.7814 51.4338 31.6539 51.1272 32.5265C50.8442 33.3991 50.4433 34.248 49.9245 35.0734C49.4293 35.8988 48.7925 36.6299 48.0143 37.2667C47.2361 37.9034 46.2928 38.4104 45.1844 38.7878C44.0995 39.1651 42.8143 39.3537 41.3286 39.3537ZM42.9911 23.8952C42.095 23.8952 41.3757 24.131 40.8333 24.6026C40.3145 25.0507 39.9136 25.6049 39.6306 26.2652C39.3712 26.902 39.1943 27.5859 39.1 28.317C39.0292 29.0244 38.9938 29.6258 38.9938 30.121C38.9938 31.6775 39.2415 32.8213 39.7367 33.5524C40.2319 34.2834 40.9394 34.649 41.8592 34.649C42.6846 34.649 43.3567 34.3895 43.8755 33.8707C44.4179 33.3519 44.8306 32.727 45.1136 31.9959C45.4202 31.2648 45.6206 30.4984 45.715 29.6966C45.8329 28.8947 45.8918 28.2226 45.8918 27.6802C45.8918 26.5011 45.6678 25.5813 45.2197 24.921C44.7952 24.2371 44.0524 23.8952 42.9911 23.8952ZM66.609 35.8871C66.609 35.3682 66.6444 34.6961 66.7152 33.8707C66.8095 33.0217 66.892 32.1374 66.9628 31.2176C67.0571 30.2743 67.1397 29.3664 67.2104 28.4938C67.3047 27.6213 67.3519 26.8902 67.3519 26.3006C67.3519 25.6875 67.1986 25.1451 66.892 24.6734C66.609 24.1782 66.0431 23.9305 65.1941 23.9305C64.3687 23.9305 63.6848 24.131 63.1424 24.5319C62.6 24.9328 62.1401 25.6639 61.7628 26.7251C61.409 27.7863 61.1142 29.2485 60.8784 31.1115C60.6426 32.9746 60.4185 35.3682 60.2063 38.2925C60.1827 38.5755 60.1237 38.7642 60.0294 38.8585C59.9351 38.9528 59.7346 39 59.4281 39H58.1546C57.4235 39 56.8221 38.9293 56.3505 38.7878C55.9024 38.6227 55.5369 38.3986 55.2539 38.1156C54.9945 37.8326 54.8058 37.4907 54.6879 37.0898C54.5936 36.6653 54.5464 36.1818 54.5464 35.6394C54.5464 35.2857 54.5582 34.7905 54.5818 34.1537C54.6289 33.4934 54.6997 32.5972 54.794 31.4653C54.8883 30.3097 54.9945 28.8594 55.1124 27.1142C55.2539 25.3455 55.419 23.1641 55.6076 20.57C55.6312 20.0511 55.6902 19.7446 55.7845 19.6502C55.8552 19.5795 56.0439 19.5441 56.3505 19.5441H57.7301C58.4376 19.5441 59.0154 19.6267 59.4634 19.7917C59.9351 19.9568 60.3124 20.1809 60.5954 20.4638C60.8784 20.7233 61.0789 21.0416 61.1968 21.419C61.3147 21.7727 61.3854 22.1382 61.409 22.5156C62.1401 21.2657 62.9773 20.4049 63.9206 19.9332C64.8639 19.438 66.0431 19.1904 67.458 19.1904C68.4485 19.1904 69.3093 19.2965 70.0404 19.5087C70.7714 19.721 71.3728 20.0865 71.8444 20.6053C72.3397 21.1006 72.7052 21.7609 72.941 22.5863C73.1769 23.3881 73.2948 24.3904 73.2948 25.5931C73.2948 25.9705 73.2712 26.5129 73.224 27.2203C73.1769 27.9278 73.1179 28.7061 73.0472 29.5551C72.9764 30.3805 72.8939 31.253 72.7996 32.1728C72.7288 33.0689 72.6581 33.9061 72.5873 34.6843C72.5166 35.4626 72.4576 36.1465 72.4104 36.736C72.3633 37.3256 72.3397 37.7147 72.3397 37.9034C72.3397 38.4222 72.2807 38.7406 72.1628 38.8585C72.0449 38.9528 71.7855 39 71.3846 39H70.2526C69.4979 39 68.8848 38.9293 68.4131 38.7878C67.9415 38.6463 67.5759 38.4458 67.3165 38.1864C67.0571 37.927 66.8685 37.6086 66.7505 37.2313C66.6562 36.8304 66.609 36.3823 66.609 35.8871ZM88.0155 34.8258C87.4259 35.8871 86.7066 36.6771 85.8576 37.1959C85.0087 37.6911 83.9474 37.9388 82.674 37.9388C81.7071 37.9388 80.8227 37.7855 80.0209 37.4789C79.2191 37.1723 78.5352 36.6889 77.9692 36.0286C77.4032 35.3682 76.9551 34.5428 76.6249 33.5524C76.3184 32.5383 76.1651 31.3356 76.1651 29.9442C76.1651 28.8122 76.283 27.6213 76.5188 26.3714C76.7547 25.0979 77.1791 23.9305 77.7923 22.8693C78.429 21.8081 79.2898 20.9355 80.3746 20.2516C81.4594 19.5441 82.8508 19.1904 84.5488 19.1904C85.2563 19.1904 85.8576 19.2729 86.3529 19.438C86.8717 19.5795 87.308 19.7799 87.6617 20.0394C88.0391 20.2988 88.3339 20.6053 88.5461 20.9591C88.7819 21.3128 88.9588 21.6902 89.0767 22.0911C89.0767 22.1147 89.0767 22.0321 89.0767 21.8434C89.1003 21.6312 89.1239 21.3954 89.1475 21.136C89.171 20.8765 89.1828 20.6289 89.1828 20.3931C89.2064 20.1337 89.2182 19.9686 89.2182 19.8979C89.2418 19.662 89.3951 19.5441 89.6781 19.5441H91.3053C92.5316 19.5441 93.416 19.8035 93.9584 20.3224C94.5244 20.8176 94.8074 21.7727 94.8074 23.1877C94.8074 23.3763 94.7956 23.8126 94.772 24.4965C94.7484 25.1568 94.7012 25.9587 94.6305 26.902C94.5833 27.8453 94.5126 28.8947 94.4182 30.0503C94.3239 31.1823 94.2178 32.326 94.0999 33.4816C93.982 34.6372 93.8522 35.7456 93.7107 36.8068C93.5693 37.868 93.416 38.7995 93.2509 39.6014C93.0858 40.4032 92.8028 41.1814 92.4019 41.9361C92.001 42.6907 91.435 43.3628 90.7039 43.9524C89.9729 44.542 89.0295 45.0136 87.874 45.3674C86.742 45.7211 85.3506 45.898 83.6998 45.898C82.4499 45.898 81.3533 45.7801 80.41 45.5443C79.4903 45.3084 78.7238 44.9901 78.1107 44.5891C77.4975 44.2118 77.0259 43.7755 76.6957 43.2803C76.3891 42.7851 76.2358 42.2898 76.2358 41.7946C76.2358 41.3465 76.3302 40.9574 76.5188 40.6272C76.7075 40.2971 76.9551 40.0259 77.2617 39.8136C77.5683 39.6014 77.8984 39.4363 78.2522 39.3184C78.6295 39.224 78.9832 39.1769 79.3134 39.1769C79.7143 39.1769 80.0091 39.2948 80.1978 39.5306C80.3864 39.7664 80.5987 40.0259 80.8345 40.3089C81.0703 40.6154 81.4005 40.8866 81.825 41.1225C82.2495 41.3583 82.9098 41.4762 83.8059 41.4762C85.3624 41.4762 86.4472 40.8984 87.0604 39.7429C87.6971 38.6109 88.0155 36.9719 88.0155 34.8258ZM85.044 33.234C85.893 33.234 86.5533 33.0335 87.025 32.6326C87.5202 32.2317 87.8976 31.7483 88.157 31.1823C88.4164 30.6163 88.5815 30.0267 88.6522 29.4136C88.723 28.8004 88.7583 28.2698 88.7583 27.8217C88.7583 26.4067 88.5343 25.4045 88.0862 24.8149C87.6617 24.2017 87.0132 23.8952 86.1406 23.8952C85.2681 23.8952 84.5842 24.131 84.0889 24.6026C83.5937 25.0743 83.2164 25.6403 82.957 26.3006C82.7211 26.9374 82.5678 27.5859 82.4971 28.2462C82.4263 28.8829 82.391 29.3782 82.391 29.7319C82.391 30.9111 82.5914 31.7954 82.9923 32.385C83.3932 32.951 84.0771 33.234 85.044 33.234ZM104.055 32.6326C103.984 33.7174 103.902 34.7551 103.807 35.7456C103.713 36.7125 103.642 37.5614 103.595 38.2925C103.572 38.5755 103.513 38.7642 103.418 38.8585C103.324 38.9528 103.123 39 102.817 39H101.543C100.812 39 100.211 38.9293 99.7393 38.7878C99.2912 38.6227 98.9257 38.3986 98.6427 38.1156C98.3833 37.8326 98.1946 37.4907 98.0767 37.0898C97.9824 36.6653 97.9352 36.1818 97.9352 35.6394C97.9352 35.2857 97.947 34.7905 97.9706 34.1537C98.0178 33.4934 98.0885 32.5972 98.1828 31.4653C98.2772 30.3097 98.3833 28.8594 98.5012 27.1142C98.6427 25.3455 98.8078 23.1641 98.9964 20.57C99.02 20.0511 99.079 19.7446 99.1733 19.6502C99.2441 19.5795 99.4327 19.5441 99.7393 19.5441H101.119C101.826 19.5441 102.404 19.6267 102.852 19.7917C103.3 19.9568 103.666 20.1691 103.949 20.4285C104.232 20.6879 104.432 20.9945 104.55 21.3482C104.668 21.702 104.739 22.0675 104.762 22.4448C105.446 21.1713 106.225 20.3106 107.097 19.8625C107.97 19.4144 108.996 19.1904 110.175 19.1904C110.811 19.1904 111.425 19.2493 112.014 19.3672C112.604 19.4852 113.134 19.6856 113.606 19.9686C114.078 20.2516 114.479 20.6289 114.809 21.1006C115.139 21.5487 115.375 22.1264 115.516 22.8339C116.247 21.4661 117.049 20.5228 117.922 20.004C118.794 19.4616 119.891 19.1904 121.212 19.1904C121.943 19.1904 122.638 19.2729 123.299 19.438C123.983 19.5795 124.572 19.8389 125.067 20.2162C125.563 20.5936 125.952 21.1124 126.235 21.7727C126.541 22.4094 126.695 23.2113 126.695 24.1782C126.695 24.9092 126.659 25.8054 126.588 26.8666C126.518 27.9278 126.435 29.0834 126.341 30.3333C126.246 31.5596 126.14 32.8331 126.022 34.1537C125.905 35.4508 125.81 36.7007 125.739 37.9034C125.716 38.1628 125.692 38.3633 125.669 38.5048C125.645 38.6463 125.598 38.7524 125.527 38.8231C125.48 38.8939 125.397 38.941 125.28 38.9646C125.162 38.9882 124.997 39 124.784 39H123.652C122.898 39 122.285 38.9293 121.813 38.7878C121.341 38.6463 120.976 38.4458 120.716 38.1864C120.457 37.927 120.268 37.6086 120.15 37.2313C120.056 36.8304 120.009 36.3823 120.009 35.8871C120.009 35.5805 120.021 35.1442 120.044 34.5782C120.091 34.0122 120.139 33.3991 120.186 32.7387C120.256 32.0784 120.315 31.3945 120.363 30.687C120.433 29.9795 120.492 29.331 120.539 28.7414C120.61 28.1283 120.657 27.5977 120.681 27.1496C120.728 26.7015 120.752 26.4067 120.752 26.2652C120.752 25.6521 120.622 25.1097 120.363 24.638C120.127 24.1664 119.655 23.9305 118.948 23.9305C118.334 23.9305 117.804 24.131 117.356 24.5319C116.908 24.9328 116.53 25.487 116.224 26.1945C115.917 26.902 115.67 27.7392 115.481 28.7061C115.292 29.673 115.163 30.7224 115.092 31.8544C115.045 32.5855 114.986 33.4226 114.915 34.366C114.844 35.3093 114.762 36.4884 114.667 37.9034C114.644 38.1628 114.62 38.3633 114.597 38.5048C114.573 38.6463 114.526 38.7524 114.455 38.8231C114.408 38.8939 114.325 38.941 114.207 38.9646C114.089 38.9882 113.924 39 113.712 39H112.58C111.826 39 111.212 38.9293 110.741 38.7878C110.269 38.6463 109.904 38.4458 109.644 38.1864C109.385 37.927 109.196 37.6086 109.078 37.2313C108.984 36.8304 108.937 36.3823 108.937 35.8871C108.937 35.4154 108.972 34.7315 109.043 33.8353C109.137 32.9156 109.22 31.9723 109.29 31.0054C109.385 30.0149 109.467 29.0834 109.538 28.2108C109.632 27.3147 109.679 26.6661 109.679 26.2652C109.679 25.6521 109.55 25.1097 109.29 24.638C109.055 24.1664 108.583 23.9305 107.875 23.9305C107.239 23.9305 106.696 24.1664 106.248 24.638C105.8 25.1097 105.423 25.7464 105.116 26.5482C104.833 27.3265 104.597 28.2462 104.409 29.3074C104.244 30.3687 104.126 31.4771 104.055 32.6326ZM133.499 39C132.768 39 132.166 38.9293 131.694 38.7878C131.246 38.6227 130.881 38.3986 130.598 38.1156C130.338 37.8326 130.15 37.4907 130.032 37.0898C129.938 36.6653 129.89 36.1818 129.89 35.6394C129.89 35.2857 129.902 34.7905 129.926 34.1537C129.973 33.4934 130.044 32.5972 130.138 31.4653C130.232 30.3097 130.338 28.8594 130.456 27.1142C130.598 25.3455 130.763 23.1641 130.952 20.57C130.975 20.0511 131.034 19.7446 131.129 19.6502C131.199 19.5795 131.388 19.5441 131.694 19.5441H133.074C133.805 19.5441 134.395 19.6149 134.843 19.7564C135.314 19.8979 135.68 20.1101 135.939 20.3931C136.222 20.6761 136.411 21.018 136.505 21.419C136.623 21.8199 136.682 22.2679 136.682 22.7632C136.682 23.1169 136.659 23.6475 136.612 24.355C136.564 25.0625 136.494 26.0294 136.399 27.2557C136.329 28.4584 136.222 29.9678 136.081 31.7836C135.939 33.5759 135.763 35.7456 135.55 38.2925C135.527 38.5755 135.468 38.7642 135.373 38.8585C135.279 38.9528 135.079 39 134.772 39H133.499ZM130.987 15.3699C130.987 14.4266 131.329 13.6838 132.013 13.1414C132.697 12.599 133.616 12.3278 134.772 12.3278C135.786 12.3278 136.517 12.54 136.965 12.9645C137.437 13.3654 137.673 13.9078 137.673 14.5917C137.673 15.4643 137.343 16.1953 136.682 16.7849C136.046 17.3509 135.102 17.6339 133.852 17.6339C131.942 17.6339 130.987 16.8792 130.987 15.3699Z" fill="#FFB317"/>
</svg>
