<svg width="30" height="30" viewBox="0 0 30 30" fill="none" xmlns="http://www.w3.org/2000/svg">
<rect width="30" height="30" rx="15" fill="white"/>
<path d="M7.875 25V15.4L7.6 15.125C7.41667 14.925 7.275 14.7 7.175 14.45C7.075 14.2 7.025 13.95 7.025 13.7C7.025 13.4333 7.075 13.1793 7.175 12.938C7.275 12.696 7.41667 12.4833 7.6 12.3L10.875 9H14.875L18.875 5L20.925 7.05C21.625 7.73333 22.1417 8.504 22.475 9.362C22.8083 10.2207 22.975 11.1 22.975 12C22.975 12.9 22.8083 13.775 22.475 14.625C22.1417 15.475 21.625 16.25 20.925 16.95L18.875 19V25H7.875ZM9.875 23H16.875V18.175L19.5 15.55C19.9833 15.0667 20.35 14.5123 20.6 13.887C20.85 13.2623 20.975 12.6333 20.975 12C20.975 11.3667 20.85 10.7417 20.6 10.125C20.35 9.50833 19.9833 8.95833 19.5 8.475L18.875 7.825L15.7 11H11.7L11.125 11.575L12.8 13.25C13.2833 13.7333 13.65 14.2833 13.9 14.9C14.15 15.5167 14.275 16.1417 14.275 16.775C14.275 17.4083 14.15 18.0377 13.9 18.663C13.65 19.2877 13.2833 19.8417 12.8 20.325L9.875 17.4V23Z" fill="#170F00"/>
</svg>
