<svg width="77" height="42" viewBox="0 0 77 42" fill="none" xmlns="http://www.w3.org/2000/svg">
<path d="M22.0352 30.6875C22.0352 32.0469 23.043 33.3242 24.6602 33.8398L24.0859 34.707C22.8789 34.3086 21.9648 33.4824 21.4961 32.4336C21.0215 33.5762 20.0898 34.4785 18.8359 34.918L18.2617 34.0391C19.8906 33.4883 20.8984 32.1289 20.9102 30.6875V30.2305H18.5547V29.3281H24.3438V30.2305H22.0352V30.6875ZM26.8516 28.5078V36.1719H25.7383V28.5078H26.8516ZM27.168 37.8711V38.7734H19.9844V35.4453H21.1094V37.8711H27.168ZM36.7656 28.4844V31.5312H38.3008V32.457H36.7656V36.0898H35.6523V28.4844H36.7656ZM33.6719 29.3867V30.2891H30.0859V33.3477C32.1309 33.3535 33.2852 33.2891 34.5977 33.0195L34.7266 33.9219C33.3086 34.2031 32.0664 34.2734 29.8164 34.2734H28.9844V29.3867H33.6719ZM37.2109 37.8711V38.7734H30.1094V35.3047H31.2227V37.8711H37.2109ZM42.5312 31.168C42.5195 33.0312 43.5977 34.9297 45.168 35.6914L44.4766 36.582C43.334 35.9902 42.4492 34.8125 41.9922 33.4062C41.5176 34.9062 40.5977 36.1602 39.4023 36.7812L38.7109 35.8789C40.3281 35.1055 41.418 33.0898 41.418 31.168V29.375H42.5312V31.168ZM47.0664 28.4961V32.6797H48.7539V33.6289H47.0664V38.9961H45.9531V28.4961H47.0664ZM53.207 29.6094V33.3711H50.6641V35.5859C51.7012 35.5684 52.6914 35.5039 53.8867 35.3047L53.9805 36.2188C52.5977 36.4531 51.5078 36.5 50.2656 36.5H49.5859V32.4805H52.1406V30.5117H49.5742V29.6094H53.207ZM58.2695 28.4961V38.9961H57.2031V28.4961H58.2695ZM56.1367 28.6953V38.457H55.082V34.707H53.7695V33.793H55.082V32.0938H53.7695V31.1914H55.082V28.6953H56.1367Z" fill="#9F9F9F"/>
<path fill-rule="evenodd" clip-rule="evenodd" d="M32 0C30.3431 0 29 1.34315 29 3V18C29 19.6569 30.3431 21 32 21H38.2907C39.1552 21 39.6788 19.9069 39.3766 19.097C39.1331 18.4442 39 17.7376 39 17C39 13.6863 41.6863 11 45 11C45.2106 11 45.4186 11.0108 45.6236 11.032C46.3101 11.1029 47 10.6175 47 9.92734V3C47 1.34315 45.6569 0 44 0H32Z" fill="#D2D1CF"/>
<path d="M48.3636 17.1818C48.3636 18.9391 46.9391 20.3636 45.1818 20.3636C43.4245 20.3636 42 18.9391 42 17.1818C42 15.4245 43.4245 14 45.1818 14C46.9391 14 48.3636 15.4245 48.3636 17.1818Z" fill="white"/>
<path d="M47.7273 19.7273L49 21M48.3636 17.1818C48.3636 18.9391 46.9391 20.3636 45.1818 20.3636C43.4245 20.3636 42 18.9391 42 17.1818C42 15.4245 43.4245 14 45.1818 14C46.9391 14 48.3636 15.4245 48.3636 17.1818Z" stroke="#D2D1CF" stroke-width="2" stroke-linecap="round" stroke-linejoin="round"/>
<path d="M33 5H40.2M33 8.6H40.2M33 12.2H36.6" stroke="white" stroke-width="2" stroke-linecap="round" stroke-linejoin="round"/>
</svg>
