<svg width="76" height="42" viewBox="0 0 76 42" fill="none" xmlns="http://www.w3.org/2000/svg">
<path d="M31.8184 28.4961V38.9961H30.752V33.6172H29.4043V38.457H28.3613V28.707H29.4043V32.7031H30.752V28.4961H31.8184ZM24.4355 29.7383V35.3398C25.4082 35.334 26.4688 35.2578 27.6582 35.0234L27.7754 35.9961C26.334 36.2539 25.127 36.3242 24.002 36.3242H23.3223V29.7383H24.4355ZM37.0918 30.6875C37.0918 32.0469 38.0996 33.3242 39.7168 33.8398L39.1426 34.707C37.9355 34.3086 37.0215 33.4824 36.5527 32.4336C36.0781 33.5762 35.1465 34.4785 33.8926 34.918L33.3184 34.0391C34.9473 33.4883 35.9551 32.1289 35.9668 30.6875V30.2305H33.6113V29.3281H39.4004V30.2305H37.0918V30.6875ZM41.9082 28.5078V36.1719H40.7949V28.5078H41.9082ZM42.2246 37.8711V38.7734H35.041V35.4453H36.166V37.8711H42.2246ZM51.8223 28.4844V31.5312H53.3574V32.457H51.8223V36.0898H50.709V28.4844H51.8223ZM48.7285 29.3867V30.2891H45.1426V33.3477C47.1875 33.3535 48.3418 33.2891 49.6543 33.0195L49.7832 33.9219C48.3652 34.2031 47.123 34.2734 44.873 34.2734H44.041V29.3867H48.7285ZM52.2676 37.8711V38.7734H45.166V35.3047H46.2793V37.8711H52.2676Z" fill="#9F9F9F"/>
<path d="M37.56 1.31391C37.7666 0.895364 38.3634 0.895364 38.57 1.31391L41.244 6.73203C41.326 6.89824 41.4846 7.01344 41.668 7.04009L47.6473 7.90893C48.1092 7.97604 48.2936 8.54367 47.9594 8.86946L43.6327 13.0869C43.5 13.2163 43.4394 13.4026 43.4708 13.5853L44.4921 19.5404C44.571 20.0004 44.0882 20.3513 43.6751 20.1341L38.3271 17.3224C38.163 17.2362 37.967 17.2362 37.803 17.3224L32.455 20.1341C32.0418 20.3513 31.559 20.0004 31.6379 19.5404L32.6593 13.5853C32.6906 13.4026 32.63 13.2163 32.4973 13.0869L28.1707 8.86946C27.8364 8.54367 28.0209 7.97604 28.4828 7.90893L34.462 7.04009C34.6454 7.01344 34.804 6.89824 34.886 6.73203L37.56 1.31391Z" fill="#D2D1CF" stroke="#D2D1CF" stroke-width="2" stroke-linejoin="round"/>
</svg>
