<svg width="76" height="42" viewBox="0 0 76 42" fill="none" xmlns="http://www.w3.org/2000/svg">
<path d="M29.7676 29.5156H31.3379L34.0215 36.0898H34.127L36.8105 29.5156H38.3809V38H37.1504V31.8711H37.0684L34.584 37.9883H33.5645L31.0684 31.8594H30.998V38H29.7676V29.5156ZM39.459 29.5156H40.9238L43.127 33.3594H43.2207L45.4355 29.5156H46.9004L43.8184 34.6719V38H42.5293V34.6719L39.459 29.5156Z" fill="#9F9F9F"/>
<path d="M28 19.1124C28 15.3369 31.1543 12.2762 37.6 12.2762C44.0457 12.2762 47.2 15.3369 47.2 19.1124C47.2 19.7131 46.7618 20.2 46.2212 20.2H28.9788C28.4382 20.2 28 19.7131 28 19.1124Z" fill="#D2D1CF"/>
<path d="M41.2 4.6C41.2 6.58822 39.5882 8.2 37.6 8.2C35.6118 8.2 34 6.58822 34 4.6C34 2.61177 35.6118 1 37.6 1C39.5882 1 41.2 2.61177 41.2 4.6Z" fill="#D2D1CF"/>
<path d="M28 19.1124C28 15.3369 31.1543 12.2762 37.6 12.2762C44.0457 12.2762 47.2 15.3369 47.2 19.1124C47.2 19.7131 46.7618 20.2 46.2212 20.2H28.9788C28.4382 20.2 28 19.7131 28 19.1124Z" stroke="#D2D1CF" stroke-width="2"/>
<path d="M41.2 4.6C41.2 6.58822 39.5882 8.2 37.6 8.2C35.6118 8.2 34 6.58822 34 4.6C34 2.61177 35.6118 1 37.6 1C39.5882 1 41.2 2.61177 41.2 4.6Z" stroke="#D2D1CF" stroke-width="2"/>
</svg>
